<svg width="24" height="24" viewBox="0 0 24 24" fill="none" xmlns="http://www.w3.org/2000/svg">
<path d="M19.607 18.746C19.607 19.627 18.891 20.37 18.01 20.37H5.23097C4.34997 20.37 3.63397 19.627 3.63397 18.746V5.96703C3.63397 5.08603 4.34997 4.39603 5.23097 4.39603H12.685V3.33203H5.23097C3.76297 3.33203 2.56897 4.50003 2.56897 5.96803V18.746C2.56897 20.214 3.76297 21.434 5.23097 21.434H18.009C19.477 21.434 20.671 20.213 20.671 18.746V11.318H19.606L19.607 18.746Z" fill="black"/>
<path d="M20.807 3.17016C20.003 2.36516 18.6 2.36516 17.795 3.17016L10.652 10.3132C10.584 10.3812 10.535 10.4672 10.512 10.5602L9.76 13.5712C9.715 13.7522 9.768 13.9442 9.9 14.0772C10.001 14.1782 10.137 14.2332 10.276 14.2332C10.319 14.2332 10.362 14.2282 10.405 14.2172L13.417 13.4642C13.511 13.4412 13.596 13.3922 13.664 13.3242L20.807 6.18116C21.209 5.77916 21.431 5.24416 21.431 4.67516C21.431 4.10616 21.21 3.57216 20.807 3.17016ZM13.016 12.4672L11.008 12.9692L11.51 10.9612L17.419 5.05216L18.925 6.55816L13.016 12.4672ZM20.054 5.42816L19.678 5.80416L18.172 4.29816L18.548 3.92216C18.95 3.52016 19.652 3.52016 20.054 3.92216C20.255 4.12316 20.366 4.39016 20.366 4.67516C20.366 4.96016 20.255 5.22716 20.054 5.42816Z" fill="black"/>
</svg>
